 <svg  version="1.0" xmlns="http://www.w3.org/2000/svg"  width="300.000000pt" height="298.000000pt" viewBox="0 0 300.000000 298.000000"  preserveAspectRatio="xMidYMid meet">  <g transform="translate(0.000000,298.000000) scale(0.100000,-0.100000)" fill="#ffffff" stroke="none"> <path d="M1675 2696 c-80 -30 -95 -39 -131 -78 -90 -97 -86 -132 24 -207 34 -24 41 -51 18 -70 -7 -6 -16 -36 -19 -67 -5 -52 -10 -61 -70 -123 -58 -61 -134 -160 -165 -217 -16 -30 -7 -47 50 -100 33 -30 64 -47 128 -67 112 -34 145 -39 207 -29 65 11 79 4 67 -34 -4 -16 -9 -47 -10 -69 0 -22 -2 -67 -4 -100 -2 -54 7 -91 37 -147 2 -3 -12 -11 -31 -18 -44 -14 -66 -44 -66 -87 0 -26 -6 -36 -25 -45 -14 -6 -32 -22 -41 -35 -34 -52 -176 -95 -373 -113 -94 -8 -95 -9 -134 -49 -21 -23 -46 -41 -55 -41 -26 -1 -41 -16 -127 -129 -81 -106 -258 -310 -280 -323 -8 -5 -25 21 -53 80 -22 48 -44 98 -47 112 -8 29 -43 70 -60 70 -7 0 -26 -16 -44 -35 -17 -19 -38 -35 -45 -35 -26 0 -41 -33 -42 -92 l-1 -58 61 -58 c34 -31 74 -78 89 -104 30 -52 69 -78 117 -78 41 0 122 42 149 77 12 15 59 78 106 138 46 61 122 152 169 203 47 50 86 96 86 101 0 14 168 91 245 112 38 10 120 25 182 34 98 13 115 13 140 0 39 -21 80 -19 110 5 36 28 58 25 83 -10 12 -17 43 -41 69 -55 31 -15 52 -34 60 -53 7 -16 41 -57 77 -92 35 -36 64 -70 64 -77 0 -16 -87 -66 -194 -113 -68 -30 -86 -43 -123 -90 -47 -62 -53 -90 -22 -121 21 -21 27 -21 170 -14 127 6 151 5 171 -9 50 -36 96 -12 128 65 16 37 8 54 -40 87 -18 12 -28 22 -23 22 18 0 123 130 123 152 0 11 -24 45 -54 76 -30 31 -75 89 -102 127 -44 64 -47 74 -45 124 2 46 -1 58 -23 80 -23 24 -25 31 -16 60 16 56 -20 109 -108 157 -1 0 0 8 4 17 4 11 14 14 38 10 27 -4 40 1 67 24 20 18 51 33 74 36 38 6 41 5 55 -26 21 -48 97 -125 132 -132 29 -7 46 -29 184 -247 13 -21 35 -45 49 -54 25 -16 27 -16 50 6 43 40 39 50 -90 251 -47 73 -85 141 -85 151 0 10 17 37 38 61 40 45 102 135 102 149 0 5 -18 28 -40 51 -30 33 -59 51 -122 75 -46 17 -132 60 -193 96 l-110 64 -48 -24 c-59 -30 -71 -24 -63 29 9 54 23 77 47 77 50 0 119 86 119 149 0 42 -25 99 -58 135 -29 30 -115 76 -144 76 -25 0 -22 23 6 49 36 34 39 59 10 88 -21 21 -30 23 -69 18 -42 -7 -45 -6 -65 26 -11 19 -30 66 -41 104 -12 39 -31 80 -43 92 -32 33 -90 36 -161 9z m112 -43 l11 -28 1 30 c1 43 15 21 41 -65 19 -67 74 -180 86 -180 3 0 25 5 49 11 25 6 52 8 61 5 15 -6 13 -11 -12 -37 -15 -16 -49 -42 -74 -56 -50 -29 -116 -81 -166 -130 -20 -20 -43 -33 -58 -33 -15 0 -34 -9 -43 -20 -10 -11 -25 -20 -33 -20 -26 0 -103 -53 -131 -91 -75 -99 -73 -137 14 -180 57 -29 65 -31 151 -26 50 2 101 8 114 12 19 6 22 4 22 -18 0 -33 -8 -37 -78 -45 -89 -10 -132 -6 -197 18 -33 12 -69 22 -80 23 -34 3 -46 16 -35 37 9 17 6 19 -27 22 -49 4 -58 38 -19 64 14 9 26 21 26 27 0 19 81 121 138 175 60 55 75 60 130 40 30 -11 35 -11 48 7 20 26 17 37 -6 31 -11 -3 -29 -9 -40 -12 -29 -8 -26 18 6 56 32 38 26 47 -16 25 -25 -13 -31 -21 -28 -43 2 -21 -2 -28 -18 -30 -19 -3 -21 2 -20 50 1 51 2 52 34 59 18 4 35 9 38 12 9 9 -75 94 -122 124 -49 31 -51 38 -27 73 53 81 143 136 224 139 19 1 28 -6 36 -26z m332 -416 c52 -35 81 -81 81 -130 0 -74 -64 -136 -117 -116 -40 15 -83 11 -90 -8 -11 -32 -34 -51 -54 -46 -10 3 -26 0 -34 -7 -12 -10 -19 -10 -27 -2 -7 7 -20 12 -29 12 -9 0 -19 9 -22 20 -3 11 -13 20 -24 20 -34 0 -46 15 -33 40 9 17 9 25 -4 39 -17 19 -21 47 -7 53 4 2 17 24 29 50 23 52 50 74 119 94 76 21 163 13 212 -19z m-402 -124 c-3 -5 1 -37 9 -73 11 -54 19 -69 51 -96 35 -30 37 -34 22 -49 -12 -12 -41 -19 -101 -22 -71 -5 -92 -2 -131 15 -26 12 -50 29 -54 38 -8 20 20 73 56 108 37 36 162 102 148 79z m330 -179 c-7 -65 -22 -76 -111 -82 -73 -4 -76 -4 -85 19 -12 33 -4 42 35 36 20 -4 34 -1 37 6 3 9 8 9 17 0 17 -16 64 10 79 44 18 40 34 28 28 -23z m-16 -111 c-21 -14 -41 -11 -41 7 0 9 40 18 53 12 5 -2 -1 -11 -12 -19z m-133 -7 c65 -33 175 -43 227 -21 22 8 42 21 46 27 11 17 39 1 39 -22 0 -33 -43 -43 -161 -36 -59 3 -117 10 -130 15 -13 5 -36 12 -51 15 -19 5 -28 13 -28 26 0 25 1 25 58 -4z m365 -43 c-1 -6 5 -17 15 -25 15 -12 16 -11 3 5 -8 10 -9 17 -3 17 6 0 14 -5 18 -11 11 -18 210 -109 239 -109 31 0 31 -7 3 -37 -25 -27 -50 -29 -69 -7 -17 20 -75 50 -174 89 -82 32 -99 51 -74 81 13 16 45 14 42 -3z m-386 -27 c4 -7 18 -19 31 -25 20 -10 27 -10 41 3 24 21 44 20 66 -4 24 -27 70 -26 89 2 13 18 18 19 31 8 18 -15 20 -44 3 -57 -7 -6 -30 -16 -50 -22 -21 -7 -41 -17 -44 -23 -11 -17 65 -2 86 17 14 13 19 13 28 2 20 -23 -21 -57 -68 -57 -29 0 -40 -4 -40 -15 0 -23 86 -21 99 2 7 13 12 14 23 6 10 -9 18 -8 32 3 46 33 108 4 151 -71 14 -23 35 -45 46 -48 27 -7 111 60 133 108 15 30 22 36 44 33 30 -3 43 -35 20 -52 -8 -6 -23 -27 -35 -46 -12 -19 -40 -53 -63 -75 -35 -34 -40 -44 -34 -70 5 -24 110 -194 195 -317 11 -15 19 -34 19 -43 0 -28 -29 -16 -53 23 -148 233 -177 272 -201 272 -30 0 -96 57 -96 82 0 10 -6 18 -14 18 -23 0 -31 22 -12 32 9 5 16 15 16 22 0 20 -59 96 -74 96 -24 0 -29 -19 -11 -47 11 -16 13 -29 7 -35 -18 -18 -45 -4 -54 27 -19 61 -18 59 -30 47 -7 -7 -38 -12 -70 -12 -66 0 -76 -14 -20 -29 52 -15 70 -14 81 7 8 15 11 14 21 -12 11 -30 2 -45 -26 -46 -7 0 -14 -9 -17 -20 -3 -11 -17 -24 -32 -30 -35 -13 -54 -2 -29 17 18 14 18 15 -5 34 -28 23 -54 24 -71 4 -17 -21 -35 -19 -52 6 -13 20 -17 21 -51 10 -34 -12 -51 -31 -27 -31 6 0 10 -7 10 -15 0 -18 -24 -20 -37 -2 -18 21 -35 86 -27 99 5 7 7 26 5 41 -1 15 3 35 10 43 9 11 9 18 1 26 -17 17 -15 43 3 58 9 7 13 21 10 31 -11 35 24 56 42 25z m445 -106 c79 -32 138 -69 138 -87 0 -14 -31 -33 -53 -33 -8 0 -30 20 -48 44 -43 56 -63 69 -119 76 -40 4 -45 8 -48 33 l-3 28 32 -16 c17 -10 63 -30 101 -45z m-357 -252 c66 -18 59 -38 -12 -32 -63 4 -68 7 -60 29 8 18 14 18 72 3z m-117 -79 c32 -45 118 -59 159 -26 17 13 69 -9 88 -37 20 -27 19 -55 -2 -78 -21 -23 -10 -46 31 -66 24 -12 26 -17 20 -50 -3 -20 -15 -45 -26 -54 -45 -39 -148 -10 -173 47 -7 18 -23 36 -34 40 -36 11 -81 -4 -91 -31 -11 -29 -34 -30 -78 -4 -39 24 -72 75 -72 112 0 31 10 40 53 45 47 5 54 18 33 57 -20 37 -16 53 18 66 27 11 57 2 74 -21z m127 15 c38 -25 30 -34 -30 -34 -42 0 -55 3 -55 15 0 8 -7 15 -15 15 -8 0 -15 4 -15 8 0 16 90 13 115 -4z m-314 -210 c13 -35 3 -64 -23 -64 -14 0 -18 5 -14 15 3 8 1 15 -3 15 -5 0 -11 -4 -13 -10 -1 -5 -37 -14 -78 -21 -109 -16 -238 -56 -293 -90 -56 -34 -73 -36 -87 -10 -13 26 15 87 44 95 12 3 47 6 78 6 87 0 280 42 324 70 40 26 53 24 65 -6z m-555 -154 c25 -10 26 -13 20 -53 -6 -35 -20 -55 -85 -122 -81 -83 -208 -238 -254 -312 -17 -27 -37 -45 -55 -49 -15 -4 -33 -16 -40 -26 -22 -31 -97 -6 -126 43 -18 31 -14 49 11 49 9 0 24 7 34 16 16 15 19 13 38 -23 12 -22 20 -31 21 -21 0 10 36 57 81 105 93 101 273 322 302 370 22 38 18 36 53 23z m1079 -57 c22 -37 68 -95 102 -129 68 -67 72 -86 22 -103 -18 -6 -29 -17 -29 -28 0 -28 -20 -43 -56 -43 -31 0 -169 -63 -209 -95 -19 -16 -19 -16 14 -11 19 3 40 1 47 -4 8 -8 14 -8 19 0 7 11 72 14 78 3 3 -5 1 -18 -4 -31 -7 -20 -16 -23 -56 -23 -27 1 -94 -2 -150 -5 -113 -6 -124 0 -80 46 12 13 27 33 32 45 6 12 46 35 96 57 48 20 116 55 153 77 36 23 75 41 86 41 19 0 20 2 6 28 -8 15 -51 62 -95 105 -98 94 -108 134 -36 136 14 0 32 -19 60 -66z m-1650 -159 c3 -20 16 -56 28 -80 l21 -44 -44 -45 c-24 -25 -48 -45 -52 -45 -5 0 -13 11 -20 25 -12 28 2 72 31 100 16 14 19 14 31 0 7 -8 18 -15 24 -15 6 0 -6 16 -26 35 -40 35 -45 53 -28 86 16 29 27 23 35 -17z m-77 -46 c13 -13 16 -48 4 -48 -16 0 -52 32 -52 46 0 17 31 19 48 2z m-8 -99 c0 -18 -35 -5 -38 14 -3 16 -1 17 17 7 12 -6 21 -15 21 -21z m159 -26 c12 -25 10 -30 -14 -50 -58 -50 -97 -11 -43 44 17 18 35 33 38 33 4 0 12 -12 19 -27z m1631 -21 c0 -5 -11 -15 -25 -22 -19 -10 -28 -11 -37 -2 -9 9 -5 14 13 21 31 12 49 13 49 3z m30 -52 c0 -5 9 -10 21 -10 26 0 20 -20 -8 -31 -27 -10 -59 12 -50 35 7 17 37 23 37 6z m-34 -51 c37 -22 45 -49 15 -49 -24 0 -71 37 -71 56 0 20 17 18 56 -7z"/> <path d="M1662 2643 c-8 -3 10 -29 48 -71 33 -36 63 -76 66 -89 4 -13 13 -23 21 -23 18 0 13 17 -33 118 -30 65 -36 72 -61 71 -15 0 -34 -3 -41 -6z"/> <path d="M1574 2578 c-4 -7 0 -16 11 -22 10 -6 45 -39 78 -73 33 -35 63 -60 68 -57 14 8 -18 62 -68 116 -45 47 -75 59 -89 36z"/> <path d="M1550 2505 c0 -9 54 -54 64 -55 6 0 -3 14 -19 30 -27 28 -45 38 -45 25z"/> <path d="M1846 2451 c-3 -5 -21 -12 -39 -15 -39 -7 -116 -69 -100 -79 6 -4 27 4 47 18 43 29 46 30 46 10 0 -8 -16 -25 -35 -37 -30 -20 -45 -38 -31 -38 4 0 155 79 164 86 2 1 -4 16 -13 33 -16 31 -29 39 -39 22z"/> <path d="M1848 2329 c-67 -34 -103 -59 -83 -59 10 0 149 70 159 81 23 22 -5 14 -76 -22z"/> <path d="M2160 2133 c0 -12 -3 -28 -6 -37 -3 -9 -1 -16 4 -16 16 0 24 37 13 57 -9 16 -10 16 -11 -4z"/> <path d="M1928 2113 c-23 -6 -23 -8 4 -43 28 -38 39 -38 62 1 15 26 16 33 5 40 -15 9 -42 10 -71 2z"/> <path d="M1802 2099 c-23 -9 -23 -9 -5 -39 22 -38 30 -38 47 3 19 47 8 57 -42 36z"/> <path d="M1876 2042 c-9 -17 -16 -33 -16 -35 0 -11 41 -14 54 -3 14 10 14 14 -3 40 l-19 29 -16 -31z"/> <path d="M1850 1677 c0 -19 50 -41 64 -27 13 13 0 25 -36 34 -20 5 -28 3 -28 -7z"/> <path d="M1840 1607 c0 -19 21 -37 42 -37 27 0 22 25 -7 38 -33 15 -35 15 -35 -1z"/> <path d="M2313 1527 c17 -24 34 -40 35 -35 5 11 -46 78 -58 78 -6 0 5 -19 23 -43z"/> <path d="M1987 1524 c-11 -14 -17 -27 -15 -29 4 -5 58 43 58 50 0 14 -28 1 -43 -21z"/> <path d="M2020 1243 c0 -4 12 -13 26 -20 22 -10 25 -9 22 5 -3 17 -48 31 -48 15z"/> <path d="M1972 1168 c3 -7 15 -15 27 -16 16 -3 22 1 19 10 -3 7 -15 15 -27 16 -16 3 -22 -1 -19 -10z"/> <path d="M1817 1110 c-14 -11 -30 -20 -36 -20 -6 0 -11 -4 -11 -10 0 -17 26 -11 45 10 10 11 31 20 47 20 17 0 27 4 23 10 -10 16 -40 12 -68 -10z"/> <path d="M2050 1100 c0 -10 32 -30 49 -30 20 0 11 17 -14 28 -31 14 -35 15 -35 2z"/> <path d="M732 478 c-14 -14 -16 -38 -4 -38 5 0 14 11 20 25 12 26 4 33 -16 13z"/> </g> </svg> 